# AST/ASF file generated using VICON BodyLanguage
# -----------------------------------------------
:version 1.10
:name VICON
:units
  mass 1.0
  length 0.45
  angle deg
:documentation
   .ast/.asf automatically generated from VICON data using
   VICON BodyBuilder and BodyLanguage model FoxedUp or BRILLIANT.MOD
:root
   order TX TY TZ RX RY RZ
   axis XYZ
   position 0 0 0  
   orientation 0 0 0 
:bonedata
  begin
     id 1 
     name lhipjoint
     direction 0.660183 -0.676772 0.325788 
     length 2.75133 
     axis 0 0 0  XYZ
  end
  begin
     id 2 
     name lfemur
     direction 0.34202 -0.939693 0  
     length 7.70317  
     axis 0 0 20  XYZ
    dof rx ry rz
    limits (-160.0 20.0)
           (-70.0 70.0)
           (-60.0 70.0)
  end
  begin
     id 3 
     name ltibia
     direction 0.342105 -0.939662 0   
     length 7.18701   
     axis 0 0 20   XYZ
    dof rx
    limits (-10.0 170.0)
  end
  begin
     id 4 
     name lfoot
     direction 0.14163 -0.389126 0.910232   
     length 2.41719   
     axis -90 7.62852e-016 20   XYZ
    dof rx rz
    limits (-45.0 90.0)
           (-70.0 20.0)
  end
  begin
     id 5 
     name ltoes
     direction 1.53533e-011 -4.21926e-011 1   
     length 1.18611   
     axis -90 7.62852e-016 20   XYZ
    dof rx
    limits (-90.0 20.0)
  end
  begin
     id 6 
     name rhipjoint
     direction -0.6658 -0.67229 0.323631   
     length 2.76968  
     axis 0 0 0  XYZ 
  end
  begin
     id 7 
     name rfemur
     direction -0.34202 -0.939693 0   
     length 7.92547   
     axis 0 0 -20   XYZ
    dof rx ry rz
    limits (-160.0 20.0)
           (-70.0 70.0)
           (-70.0 60.0)
  end
  begin
     id 8 
     name rtibia
     direction -0.342022 -0.939692 0   
     length 7.22641   
     axis 0 0 -20   XYZ
    dof rx
    limits (-10.0 170.0)
 end
 begin
     id 9 
     name rfoot
     direction -0.105675 -0.29034 0.951071   
     length 2.48149  
     axis -90 -7.62852e-016 -20   XYZ
    dof rx rz
    limits (-45.0 90.0)
           (-20.0 70.0)
  end
  begin
     id 10 
     name rtoes
     direction -1.5349e-011 -4.21859e-011 1   
     length 1.23343   
     axis -90 -7.62852e-016 -20   XYZ
    dof rx
    limits (-90.0 20.0)
  end
  begin
     id 11 
     name lowerback
     direction 0.0104173 0.993624 -0.112266   
     length 2.00527   
     axis 0 0 0   XYZ
    dof rx ry rz
    limits (-20.0 45.0)
           (-30.0 30.0)
           (-30.0 30.0)
  end
  begin
     id 12 
     name upperback
     direction 0.00733149 0.999856 -0.0152913   
     length 2.01385   
     axis 0 0 0   XYZ
    dof rx ry rz
    limits (-20.0 45.0)
           (-30.0 30.0)
           (-30.0 30.0)
  end
  begin
     id 13 
     name thorax
     direction 0.0026304 0.999318 0.036841   
     length 2.03734   
     axis 0 0 0   XYZ
    dof rx ry rz
    limits (-20.0 45.0)
           (-30.0 30.0)
           (-30.0 30.0)
  end
  begin
     id 14 
     name lowerneck
     direction 0.0293154 0.998757 0.0403082   
     length 1.65303   
     axis 0 0 0   XYZ
    dof rx ry rz
    limits (-20.0 45.0)
           (-30.0 30.0)
           (-30.0 30.0)
  end
  begin
     id 15 
     name upperneck
     direction -0.0376619 0.998184 -0.0470083   
     length 1.60926   
     axis 0 0 0   XYZ
    dof rx ry rz
    limits (-20.0 45.0)
           (-30.0 30.0)
           (-30.0 30.0)
  end
  begin
     id 16
     name head
     direction -0.0170133 0.999635 -0.0209778  
     length 1.73625  
     axis 0 0 0   XYZ
    dof rx ry rz
    limits (-20.0 45.0)
           (-30.0 30.0)
           (-30.0 30.0)
  end
  begin
     id 17 
     name lclavicle
     direction 0.919857 0.39181 -0.0186333  
     length 3.75313  
     axis 0 0 0   XYZ
    dof ry rz
    limits (-20.0 10.0)
           (0.0 20.0)
  end
  begin
     id 18 
     name lhumerus
     direction 1 -4.48988e-011 1.44029e-027   
     length 5.49313   
     axis 180 -30 -90   XYZ
    dof rx ry rz
    limits (-60.0 90.0)
           (-90.0 90.0)
           (-90.0 90.0)
  end
  begin
     id 19
     name lradius
     direction 1 -4.48924e-011 7.46281e-027   
     length 3.29037   
     axis 180 -30 -90   XYZ
    dof rx
    limits (-10.0 170.0)
  end
  begin
     id 20
     name lwrist
     direction 1 -4.48955e-011 2.19879e-026   
     length 1.64519   
     axis -1.34358e-014 90 90   XYZ
    dof ry
    limits (-180.0 0.0)
 end
  begin
     id 21 
     name lhand
     direction 1 -4.48978e-011 4.39747e-026   
     length 0.729656   
     axis -2.80598e-014 90 90   XYZ
    dof rx rz
    limits (-90.0 90.0)
           (-45.0 45.0)
  end
  begin
     id 22 
     name lfingers
     direction 1 -4.49071e-011 8.79411e-026   
     length 0.588268   
     axis -5.61193e-014 90 90   XYZ
    dof rx
    limits (0.0 90.0)
  end
  begin
     id 23
     name lthumb
     direction 0.707107 -6.34817e-011 0.707107   
     length 0.844638   
     axis -90 45 -9.86923e-015   XYZ
    dof rx rz
    limits (-45.0 45.0)
           (-45.0 45.0)
  end
  begin
     id 24 
     name rclavicle
     direction -0.919898 0.388279 0.0550233   
     length 3.7171  
     axis 0 0 0   XYZ 
    dof ry rz
    limits (-10.0 20.0)
           (-20.0 0.0)
  end
  begin
     id 25 
     name rhumerus
     direction -1 -4.48968e-011 9.98372e-028  
     length 5.23684   
     axis 180 30 90   XYZ
    dof rx ry rz
    limits (-90.0 60.0)
           (-90.0 90.0)
           (-90.0 90.0)
  end
  begin
     id 26 
     name rradius
     direction -1 -4.48956e-011 1.01023e-026   
     length 3.38251   
     axis 180 30 90   XYZ
    dof rx
    limits (-10.0 170.0)
  end
  begin
     id 27 
     name rwrist
     direction -1 -4.4892e-011 2.19886e-026   
     length 1.69126   
     axis -1.34358e-014 -90 -90   XYZ
    dof ry
    limits (-180.0 0.0)
  end
  begin
     id 28
     name rhand
     direction -1 -4.49024e-011 4.39727e-026   
     length 0.691454   
     axis -2.80598e-014 -90 -90   XYZ
    dof rx rz
    limits (-90.0 90.0)
           (-45.0 45.0)
  end
  begin
     id 29
     name rfingers
     direction -1 -4.49097e-011 8.79388e-026   
     length 0.557468   
     axis -5.61193e-014 -90 -90   XYZ
    dof rx
    limits (0.0 90.0)
  end
  begin
     id 30
     name rthumb
     direction -0.707107 -6.34938e-011 0.707107   
     length 0.800416   
     axis -90 -45 9.86923e-015   XYZ
    dof rx rz
    limits (-45.0 45.0)
           (-45.0 45.0)
  end
:hierarchy
  begin
    root lhipjoint rhipjoint lowerback
    lhipjoint lfemur
    lfemur ltibia
    ltibia lfoot
    lfoot ltoes
    rhipjoint rfemur
    rfemur rtibia
    rtibia rfoot
    rfoot rtoes
    lowerback upperback
    upperback thorax
    thorax lowerneck lclavicle rclavicle
    lowerneck upperneck
    upperneck head
    lclavicle lhumerus
    lhumerus lradius
    lradius lwrist
    lwrist lhand lthumb
    lhand lfingers
    rclavicle rhumerus
    rhumerus rradius
    rradius rwrist
    rwrist rhand rthumb
    rhand rfingers
  end

#!OML:ASF H:\BabyWalks\Project 1\Capture day 1\Session 1\baby.ASF
:FULLY-SPECIFIED
:DEGREES
78
root -7.22421 17.4204 -1.63487 139.05 -81.4887 -142.538
lowerback 9.03837 -0.117132 1.59559
upperback 1.07525 0.017024 1.50316
thorax -3.95179 -0.0268357 0.660576
lowerneck -7.61427 0.858978 4.96013
upperneck 5.07718 0.925843 -4.39539
head 3.05671 0.396593 -2.28773
rclavicle 1.05107e-014 -1.78906e-015
rhumerus -18.5214 -42.1876 -14.2437
rradius 28.992
rwrist 25.855
rhand -3.30321 -15.3628
rfingers 7.12502
rthumb 22.4229 -44.0813
lclavicle 1.05107e-014 -1.78906e-015
lhumerus -26.2726 52.9926 8.82307
lradius 33.292
lwrist -23.8854
lhand 5.95999 19.2431
lfingers 7.12502
lthumb 31.2852 46.5898
rfemur -2.89853 17.1888 21.0262
rtibia 28.5588
rfoot -23.8891 -29.5415
rtoes 2.66878
lfemur -2.88465 -16.5002 -14.0877
ltibia 32.6738
lfoot -26.1399 38.023
ltoes -0.256453
79
root -7.22083 17.4206 -1.63504 139.024 -81.5045 -142.524
lowerback 9.05187 -0.12052 1.57204
upperback 1.07682 0.0104932 1.50333
thorax -3.95771 -0.0297412 0.674851
lowerneck -7.60851 0.853619 4.95302
upperneck 5.0759 0.918189 -4.37329
head 3.0543 0.393547 -2.27921
rclavicle -4.72114e-016 -1.39149e-015
rhumerus -18.5382 -42.1452 -14.2448
rradius 29.0071
rwrist 25.8376
rhand -3.37238 -15.3347
rfingers 7.12502
rthumb 22.3565 -44.0612
lclavicle -4.72114e-016 -1.39149e-015
lhumerus -26.2626 53.043 8.81244
lradius 33.2824
lwrist -23.9447
lhand 5.95642 19.2525
lfingers 7.12502
lthumb 31.2818 46.5999
rfemur -2.89531 17.1743 21.017
rtibia 28.5572
rfoot -23.8786 -29.5315
rtoes 2.71342
lfemur -2.88569 -16.5137 -14.0951
ltibia 32.6688
lfoot -26.1228 38.0214
ltoes -0.249276
80
root -7.2175 17.4208 -1.6352 138.999 -81.5213 -142.51
lowerback 9.06473 -0.123688 1.54907
upperback 1.07744 0.0043281 1.50329
thorax -3.96425 -0.0324672 0.688541
lowerneck -7.59954 0.847464 4.94874
upperneck 5.07538 0.909634 -4.3558
head 3.05161 0.389969 -2.27282
rclavicle 1.2424e-014 -2.38542e-015
rhumerus -18.5569 -42.1045 -14.2438
rradius 29.0213
rwrist 25.8221
rhand -3.43528 -15.3222
rfingers 7.12502
rthumb 22.2962 -44.0559
lclavicle 1.2424e-014 -2.38542e-015
lhumerus -26.2472 53.0857 8.80781
lradius 33.2726
lwrist -24.0077
lhand 5.93819 19.2631
lfingers 7.12502
lthumb 31.2644 46.6138
rfemur -2.89279 17.1586 21.0067
rtibia 28.5556
rfoot -23.871 -29.5256
rtoes 2.73756
lfemur -2.88768 -16.5281 -14.1033
ltibia 32.6646
lfoot -26.1075 38.0202
ltoes -0.241629
81
root -7.21421 17.421 -1.63536 138.96 -81.5364 -142.481
lowerback 9.0755 -0.126922 1.53006
upperback 1.07786 -0.00157157 1.50375
thorax -3.96982 -0.0351166 0.700475
lowerneck -7.58953 0.841071 4.9487
upperneck 5.07733 0.900764 -4.34354
head 3.04969 0.386143 -2.26903
rclavicle 9.56651e-015 -1.51076e-014
rhumerus -18.5752 -42.0728 -14.2412
rradius 29.0321
rwrist 25.8164
rhand -3.48911 -15.3154
rfingers 7.12502
rthumb 22.2445 -44.0553
lclavicle 9.56651e-015 -1.51076e-014
lhumerus -26.2283 53.1227 8.80728
lradius 33.2641
lwrist -24.0731
lhand 5.90808 19.2735
lfingers 7.12502
lthumb 31.2357 46.6298
rfemur -2.89131 17.143 20.9991
rtibia 28.5537
rfoot -23.8657 -29.521
rtoes 2.7572
lfemur -2.89126 -16.5427 -14.1083
ltibia 32.6618
lfoot -26.0927 38.0191
ltoes -0.234667
82
root -7.21094 17.4212 -1.63549 138.904 -81.5488 -142.433
lowerback 9.08487 -0.13011 1.51649
upperback 1.07889 -0.00692604 1.50502
thorax -3.97397 -0.0375825 0.710133
lowerneck -7.58444 0.835597 4.95155
upperneck 5.08643 0.892946 -4.334
head 3.05131 0.382772 -2.26678
rclavicle 5.59082e-016 5.76476e-015
rhumerus -18.5929 -42.0516 -14.2376
rradius 29.0414
rwrist 25.819
rhand -3.52784 -15.3222
rfingers 7.12502
rthumb 22.2073 -44.0665
lclavicle 5.59082e-016 5.76476e-015
lhumerus -26.203 53.14 8.81576
lradius 33.2591
lwrist -24.1215
lhand 5.86756 19.2901
lfingers 7.12502
lthumb 31.1971 46.6538
rfemur -2.88965 17.1276 20.9957
rtibia 28.5505
rfoot -23.8605 -29.5165
rtoes 2.77403
lfemur -2.89623 -16.5571 -14.1087
ltibia 32.6609
lfoot -26.0805 38.0172
ltoes -0.227624
